PathFileType	4	(x/y/z)	S09_PSF_T11
DataRate	CameraRate	NumFrames	NumMarkers	Units	OrigDataRate	OrigDataStartFrame	OrigNumFrames
240	240	8	51	mm	240	172	458
Frame#	Time	Sternum			R.Acromium			L.Acromium			Top.Head			R.ASIS			L.ASIS			R.PSIS			L.PSIS			R.Great.Tro			L.Great.Tro			R.Iliac.Crest			L.Iliac.Crest			V.Sacral			R.Thigh.Upper.Post			R.Thigh.Lower.Ant			R.Thigh.Lower.Post			R.Thigh.Upper.Ant			R.Knee.Lat			R.Knee.Med			R.Shank.Upper.Post			R.Shank.Lower.Ant			R.Shank.Lower.Post			R.Shank.Upper.Ant			R.Ankle.Lat			R.Ankle.Med			R.Heel.Upper			R.Heel.Med			R.Heel.Lat			R.Toe.Lat			R.Toe.Med			R.Toe.Tip			L.Thigh.Upper.Post			L.Thigh.Lower.Ant			L.Thigh.Lower.Post			L.Thigh.Upper.Ant			L.Knee.Lat			L.Knee.Med			L.Shank.Upper.Post			L.Shank.Lower.Ant			L.Shank.Lower.Post			L.Shank.Upper.Ant			L.Ankle.Lat			L.Ankle.Med			L.Heel.Upper			L.Heel.Med			L.Heel.Lat			L.Toe.Lat			L.Toe.Med			L.Toe.Tip			Cervical.Spine			Back			
		X1	Y1	Z1	X2	Y2	Z2	X3	Y3	Z3	X4	Y4	Z4	X5	Y5	Z5	X6	Y6	Z6	X7	Y7	Z7	X8	Y8	Z8	X9	Y9	Z9	X10	Y10	Z10	X11	Y11	Z11	X12	Y12	Z12	X13	Y13	Z13	X14	Y14	Z14	X15	Y15	Z15	X16	Y16	Z16	X17	Y17	Z17	X18	Y18	Z18	X19	Y19	Z19	X20	Y20	Z20	X21	Y21	Z21	X22	Y22	Z22	X23	Y23	Z23	X24	Y24	Z24	X25	Y25	Z25	X26	Y26	Z26	X27	Y27	Z27	X28	Y28	Z28	X29	Y29	Z29	X30	Y30	Z30	X31	Y31	Z31	X32	Y32	Z32	X33	Y33	Z33	X34	Y34	Z34	X35	Y35	Z35	X36	Y36	Z36	X37	Y37	Z37	X38	Y38	Z38	X39	Y39	Z39	X40	Y40	Z40	X41	Y41	Z41	X42	Y42	Z42	X43	Y43	Z43	X44	Y44	Z44	X45	Y45	Z45	X46	Y46	Z46	X47	Y47	Z47	X48	Y48	Z48	X49	Y49	Z49	X50	Y50	Z50	X51	Y51	Z51	

172	0.7125	-645.72	1185.5	332.19	-807.7	1417.1	490.22	-808.58	1413.7	176.22	-799.66	1726	326.58	-666.27	1022.5	437.05	-696.9	1005.9	192.71	-897.51	1020.6	388.84	-899.26	1022.9	300.17	-723.34	931.37	519.54	-781.3	910.85	135.67	-761.1	1093.7	492.83	-815.47	1094.8	169.23	-915.56	985.82	342.58	-662.03	682.14	488.95	-576.86	605.61	429.61	-650.09	593.58	457.65	-594.68	688.83	464.29	-583.24	526.72	425.15	-607.42	519.08	305.64	-634.63	342.98	438.71	-563.5	290.35	415.87	-630.13	267.11	426.92	-573.36	362.61	430.27	-589.44	88.907	401.23	-562.57	101.73	304.68	-652.16	74.027	350.93	-639.89	43.127	322.07	-647.57	43.061	385.99	-485.35	43.075	434.38	-441.68	52.704	326.92	-395.59	74.338	370.7	-864.41	663.22	199.83	-796.37	557.48	174.59	-863.95	574.6	209.3	-803.43	645.99	159.33	-829.79	490.01	183.44	-768.35	480.37	306.84	-947.12	427.66	188.62	-964.05	318.45	190.81	-999.87	371.94	199.46	-911.11	375.12	181.04	-1125	210.29	226.95	-1101.5	195.4	316.15	-1183.3	247.45	289.1	-1191.7	229.13	326.54	-1211.4	231.23	267.29	-1143.4	78.851	210.79	-1101.8	59.384	317.07	-1071.6	37.381	257.87	-889.49	1460.9	343.58	-914.59	1189.6	328.6
173	0.71667	-640.23	1186.3	332.57	-802.05	1417.8	490.54	-803.3	1414.2	176.58	-794.42	1726.5	326.7	-660.81	1023.4	437.69	-691.31	1006.1	193.38	-892.05	1021.2	389.07	-893.77	1023	300.38	-718.05	932.27	520.11	-775.26	910.74	136.31	-755.72	1094.5	493.25	-809.87	1094.8	169.55	-910.01	986.1	342.93	-657.49	682.54	489.68	-572.75	605.65	430.17	-646.03	593.97	458.27	-590.13	688.89	464.91	-579.57	526.67	425.58	-603.68	519.35	306.11	-632.37	343.19	439.02	-561.62	290.05	416.15	-628.44	267.3	427.12	-570.94	362.37	430.61	-589.18	88.858	401.28	-562.85	101.99	305.11	-652.01	74.107	350.96	-639.82	43.209	322.09	-647.49	43.118	386.01	-485.26	42.93	434.49	-441.59	52.197	326.81	-395.36	73.602	370.62	-856.1	662.27	199.49	-787.21	557.27	173.41	-854.16	573.52	208.55	-795.17	645.77	158.6	-820.04	489.99	181.88	-757.74	479.67	305.15	-937.25	428.93	187.57	-955.31	319.85	189.25	-990.51	373.67	198.42	-901.83	376.05	179.47	-1116.7	213.08	225.62	-1093.4	197.72	314.77	-1172.8	252.61	287.75	-1181.9	234.83	325.32	-1201.6	237.22	266.08	-1139.4	81.808	210.33	-1098.2	61.443	316.54	-1069.4	37.009	257.35	-884.02	1461.4	343.95	-909	1190.2	329.1
174	0.72083	-634.79	1187	332.94	-796.38	1418.5	490.86	-798.03	1414.7	176.94	-789.19	1727.1	326.81	-655.4	1024.3	438.32	-685.78	1006.3	194.04	-886.64	1021.8	389.28	-888.36	1023.1	300.59	-712.81	933.15	520.67	-769.28	910.63	136.95	-750.4	1095.3	493.67	-804.35	1094.7	169.85	-904.52	986.39	343.28	-653.09	682.9	490.38	-568.8	605.61	430.71	-642.13	594.32	458.85	-585.73	688.89	465.52	-576.05	526.6	426.01	-600.1	519.6	306.56	-630.23	343.38	439.28	-559.84	289.76	416.42	-626.86	267.47	427.28	-568.64	362.14	430.95	-588.96	88.817	401.32	-563.17	102.25	305.53	-651.88	74.174	350.99	-639.76	43.28	322.1	-647.42	43.167	386.04	-485.19	42.815	434.57	-441.52	51.742	326.7	-395.16	72.943	370.54	-847.77	661.33	199.13	-778.01	557.1	172.22	-844.29	572.47	207.79	-786.89	645.57	157.87	-810.2	490	180.32	-747.08	479.05	303.5	-927.25	430.17	186.51	-946.39	321.22	187.71	-981	375.36	197.37	-892.39	376.98	177.92	-1108.2	215.84	224.3	-1085.1	200.03	313.42	-1162.1	257.62	286.35	-1171.9	240.36	324.04	-1191.5	243.08	264.8	-1135.1	84.845	209.82	-1094.3	63.591	315.96	-1066.8	36.689	256.79	-878.55	1461.9	344.32	-903.45	1190.8	329.58
175	0.725	-629.39	1187.8	333.28	-790.69	1419.2	491.16	-792.75	1415.3	177.29	-783.96	1727.6	326.93	-650.05	1025.2	438.94	-680.31	1006.5	194.7	-881.29	1022.4	389.49	-883	1023.2	300.8	-707.63	934.01	521.24	-763.39	910.52	137.59	-745.13	1096.2	494.07	-798.88	1094.7	170.15	-899.1	986.68	343.64	-648.83	683.22	491.05	-564.98	605.52	431.22	-638.39	594.63	459.38	-581.45	688.82	466.11	-572.67	526.51	426.42	-596.69	519.82	306.98	-628.21	343.57	439.48	-558.15	289.47	416.68	-625.37	267.64	427.4	-566.47	361.9	431.26	-588.76	88.782	401.34	-563.52	102.52	305.93	-651.77	74.23	351.01	-639.7	43.341	322.11	-647.36	43.209	386.06	-485.13	42.725	434.63	-441.47	51.332	326.6	-394.99	72.352	370.46	-839.44	660.43	198.75	-768.78	556.98	171.04	-834.37	571.47	207.02	-778.59	645.41	157.13	-800.3	490.07	178.76	-736.39	478.54	301.89	-917.13	431.4	185.42	-937.3	322.59	186.2	-971.34	377.02	196.31	-882.8	377.9	176.39	-1099.4	218.58	222.99	-1076.6	202.32	312.1	-1151.1	262.48	284.93	-1161.6	245.71	322.71	-1181.2	248.76	263.47	-1130.2	87.94	209.24	-1090	65.806	315.32	-1063.8	36.441	256.18	-873.07	1462.4	344.69	-897.94	1191.3	330.05
176	0.72917	-624.02	1188.5	333.6	-784.99	1419.9	491.46	-787.48	1415.8	177.64	-778.74	1728.1	327.04	-644.75	1026	439.56	-674.89	1006.7	195.34	-875.99	1023	389.71	-877.71	1023.3	301.01	-702.49	934.85	521.82	-757.56	910.43	138.21	-739.9	1096.9	494.45	-793.49	1094.6	170.43	-893.74	986.98	344	-644.72	683.52	491.69	-561.32	605.36	431.71	-634.8	594.92	459.86	-577.3	688.69	466.68	-569.42	526.39	426.83	-593.44	520	307.37	-626.31	343.75	439.62	-556.57	289.19	416.94	-623.98	267.8	427.47	-564.41	361.66	431.56	-588.58	88.754	401.35	-563.87	102.76	306.3	-651.68	74.275	351.02	-639.65	43.392	322.11	-647.31	43.246	386.08	-485.1	42.656	434.67	-441.43	50.96	326.49	-394.84	71.82	370.38	-831.09	659.56	198.35	-759.53	556.93	169.87	-824.41	570.51	206.24	-770.28	645.29	156.4	-790.34	490.2	177.22	-725.7	478.13	300.35	-906.89	432.6	184.31	-928.04	323.93	184.73	-961.54	378.64	195.24	-873.08	378.82	174.89	-1090.4	221.28	221.71	-1068	204.59	310.84	-1140.1	267.13	283.49	-1151.2	250.84	321.36	-1170.6	254.23	262.08	-1124.9	91.064	208.6	-1085.3	68.066	314.63	-1060.3	36.285	255.51	-867.59	1462.9	345.06	-892.47	1191.9	330.51
177	0.73333	-618.7	1189.1	333.9	-779.27	1420.6	491.74	-782.21	1416.4	177.97	-773.52	1728.7	327.16	-639.5	1026.8	440.17	-669.54	1006.9	195.95	-870.74	1023.6	389.92	-872.48	1023.4	301.23	-697.4	935.66	522.4	-751.82	910.35	138.83	-734.72	1097.7	494.83	-788.16	1094.6	170.72	-888.45	987.27	344.37	-640.74	683.78	492.28	-557.79	605.15	432.17	-631.36	595.17	460.31	-573.28	688.51	467.23	-566.31	526.25	427.23	-590.34	520.14	307.75	-624.52	343.92	439.72	-555.07	288.91	417.19	-622.67	267.95	427.51	-562.46	361.42	431.84	-588.42	88.731	401.34	-564.2	102.99	306.63	-651.6	74.312	351.02	-639.6	43.436	322.11	-647.27	43.279	386.1	-485.07	42.604	434.7	-441.4	50.621	326.38	-394.72	71.34	370.3	-822.74	658.74	197.94	-750.26	556.94	168.72	-814.42	569.61	205.46	-761.95	645.23	155.68	-780.32	490.39	175.7	-715.01	477.85	298.87	-896.55	433.79	183.18	-918.63	325.26	183.31	-951.62	380.23	194.17	-863.22	379.74	173.43	-1081.2	223.94	220.46	-1059.2	206.83	309.63	-1128.9	271.56	282.05	-1140.6	255.71	319.99	-1159.9	259.44	260.67	-1119	94.191	207.88	-1080.2	70.347	313.87	-1056.3	36.241	254.79	-862.1	1463.4	345.43	-887.04	1192.6	330.97
178	0.7375	-613.4	1189.8	334.18	-773.54	1421.3	492.02	-776.95	1417	178.29	-768.31	1729.2	327.27	-634.3	1027.6	440.76	-664.24	1007.1	196.55	-865.54	1024.2	390.16	-867.3	1023.5	301.46	-692.35	936.45	522.98	-746.16	910.3	139.44	-729.58	1098.5	495.2	-782.9	1094.5	171	-883.2	987.58	344.75	-636.89	684.02	492.84	-554.39	604.89	432.61	-628.07	595.4	460.72	-569.39	688.29	467.74	-563.33	526.1	427.63	-587.4	520.25	308.09	-622.84	344.08	439.77	-553.65	288.63	417.42	-621.45	268.1	427.51	-560.62	361.18	432.11	-588.28	88.712	401.33	-564.49	103.17	306.9	-651.53	74.342	351.02	-639.56	43.473	322.09	-647.23	43.308	386.11	-485.05	42.565	434.7	-441.37	50.309	326.28	-394.6	70.904	370.22	-814.39	657.99	197.52	-740.98	557.02	167.59	-804.43	568.79	204.68	-753.61	645.23	154.98	-770.26	490.65	174.2	-704.34	477.7	297.46	-886.12	434.96	182.03	-909.07	326.57	181.94	-941.58	381.79	193.1	-853.24	380.66	172	-1071.8	226.55	219.25	-1050.3	209.04	308.48	-1117.7	275.75	280.64	-1130	260.28	318.62	-1149	264.37	259.25	-1112.6	97.293	207.07	-1074.6	72.623	313.04	-1051.8	36.327	253.99	-856.61	1464	345.8	-881.64	1193.2	331.43
179	0.74167	-608.15	1190.4	334.43	-767.79	1421.9	492.29	-771.7	1417.5	178.6	-763.1	1729.8	327.38	-629.14	1028.4	441.34	-659	1007.3	197.13	-860.38	1024.7	390.4	-862.18	1023.7	301.71	-687.33	937.22	523.57	-740.58	910.27	140.04	-724.46	1099.2	495.56	-777.71	1094.4	171.29	-878.02	987.89	345.16	-633.17	684.23	493.36	-551.11	604.58	433.03	-624.91	595.6	461.1	-565.61	688.02	468.23	-560.47	525.92	428.03	-584.58	520.33	308.42	-621.25	344.22	439.79	-552.32	288.37	417.65	-620.29	268.23	427.49	-558.88	360.94	432.36	-588.15	88.698	401.31	-564.73	103.32	307.11	-651.47	74.367	351.01	-639.52	43.503	322.08	-647.2	43.336	386.12	-485.04	42.536	434.7	-441.36	50.021	326.17	-394.5	70.506	370.15	-806.05	657.29	197.09	-731.69	557.19	166.48	-794.44	568.04	203.9	-745.27	645.3	154.29	-760.16	490.99	172.73	-693.71	477.68	296.12	-875.61	436.11	180.87	-899.37	327.86	180.62	-931.44	383.3	192.03	-843.15	381.58	170.62	-1062.3	229.1	218.08	-1041.2	211.22	307.38	-1106.5	279.66	279.28	-1119.4	264.54	317.28	-1138.1	268.98	257.84	-1105.7	100.34	206.18	-1068.5	74.87	312.13	-1046.6	36.56	253.11	-851.13	1464.6	346.18	-876.28	1193.8	331.88
